<svg data-v-2cb57da0="" version="1.0" xmlns="http://www.w3.org/2000/svg" xmlns:xlink="http://www.w3.org/1999/xlink" width="100%" height="100%" viewBox="0 0 340.000000 250.000000" preserveAspectRatio="xMidYMid meet" color-interpolation-filters="sRGB" style="margin: auto;">
  <rect data-v-2cb57da0="" x="0" y="0" width="100%" height="100%" fill-opacity="1" fill="transparent" class="background">
  </rect>
  <rect data-v-2cb57da0="" x="0" y="0" width="100%" height="100%" fill="transparent" fill-opacity="1" class="watermarklayer">
  </rect>
  <g data-v-2cb57da0="" fill="#ce93bf" class="iconblsvg-g iconsvg" transform="translate(63.283355712890625,88.068359375)">
    <g class="tp-name">
      <g data-gra="path-name" transform="translate(0, 6.157461166381836)">
        <g transform="scale(1)">
          <path d="M25.2-10.08L25.2-10.08Q24.9-6.77 23.69-4.58 22.47-2.4 20.71-1.1 18.96 0.21 16.83 0.73 14.71 1.26 12.6 1.26L12.6 1.26Q10.4 1.26 8.36 0.66 6.33 0.06 4.78-1.14 3.22-2.34 2.3-4.16 1.38-5.98 1.38-8.41L1.38-8.41Q1.38-10.28 1.95-11.54 2.52-12.8 3.37-13.56 4.22-14.33 5.19-14.63 6.15-14.94 6.97-14.94L6.97-14.94Q7.82-14.94 8.73-14.68 9.64-14.41 10.4-13.8 11.16-13.18 11.65-12.14 12.13-11.1 12.13-9.55L12.13-9.55Q12.13-9.52 12.08-9.01 12.04-8.5 11.75-7.84 11.46-7.18 10.85-6.55 10.25-5.92 9.11-5.65L9.11-5.65Q9.93-4.63 11.03-4.12 12.13-3.6 12.89-3.6L12.89-3.6Q13.65-3.6 14.63-3.87 15.62-4.13 16.48-4.76 17.34-5.39 17.94-6.43 18.54-7.47 18.54-9.05L18.54-9.05Q18.54-10.9 17.92-12.33 17.29-13.77 16.3-14.87 15.32-15.97 14.11-16.8 12.89-17.64 11.75-18.31L11.75-18.31Q10.99-18.75 9.93-19.35 8.88-19.95 7.73-20.79 6.59-21.62 5.48-22.69 4.37-23.76 3.47-25.12 2.58-26.48 2.04-28.15 1.49-29.82 1.49-31.85L1.49-31.85Q1.49-34.86 2.55-37.13 3.6-39.4 5.29-40.93 6.97-42.45 9.11-43.21 11.25-43.97 13.45-43.97L13.45-43.97Q15.64-43.97 17.64-43.37 19.63-42.77 21.14-41.65 22.65-40.52 23.54-38.95 24.43-37.38 24.43-35.45L24.43-35.45Q24.43-33.49 23.79-32.34 23.14-31.2 22.25-30.62 21.36-30.03 20.43-29.87 19.51-29.71 18.96-29.71L18.96-29.71Q18.25-29.71 17.49-29.97 16.73-30.23 16.1-30.76 15.47-31.29 15.06-32.05 14.65-32.81 14.65-33.84L14.65-33.84Q14.68-34.48 14.79-35.13L14.79-35.13Q14.91-35.68 15.15-36.33 15.38-36.97 15.85-37.56L15.85-37.56Q15.38-37.97 14.94-38.2 14.5-38.44 14.12-38.55L14.12-38.55Q13.68-38.67 13.27-38.7L13.27-38.7Q12.45-38.7 11.62-38.41 10.78-38.12 10.09-37.53 9.4-36.94 8.96-36.05 8.53-35.16 8.53-33.96L8.53-33.96Q8.53-32.55 8.96-31.42 9.4-30.29 10.34-29.24 11.28-28.18 12.73-27.1 14.18-26.02 16.2-24.73L16.2-24.73Q18.57-23.23 20.29-21.74 22-20.24 23.1-18.66 24.2-17.08 24.73-15.34 25.25-13.59 25.25-11.57L25.25-11.57Q25.25-11.22 25.25-10.85 25.25-10.49 25.2-10.08ZM43.45-31.73L50.95-31.61Q50.77-29.88 50.65-28.11 50.54-26.34 50.43-24.58 50.33-22.82 50.24-21.17 50.16-19.51 50.1-18.02L50.1-18.02Q49.95-14.53 49.86-11.28L49.86-11.28Q49.69-7.82 49.67-4.44 49.66-1.05 49.45 2.01 49.25 5.07 48.68 7.69 48.11 10.31 46.82 12.23 45.53 14.15 43.34 15.23 41.16 16.32 37.73 16.32L37.73 16.32Q35.16 16.32 33.62 15.57 32.08 14.82 31.26 13.75 30.44 12.69 30.19 11.48 29.94 10.28 29.94 9.35L29.94 9.35Q29.94 8.35 30.25 7.49 30.56 6.62 31.11 5.98 31.67 5.33 32.48 4.95 33.28 4.57 34.31 4.57L34.31 4.57Q35.39 4.57 36.24 4.98 37.09 5.39 37.66 6.05 38.23 6.71 38.53 7.53 38.82 8.35 38.82 9.17L38.82 9.17Q38.79 9.64 38.61 10.14L38.61 10.14Q38.47 10.55 38.1 11.06 37.73 11.57 37.09 12.07L37.09 12.07Q37.44 12.22 37.75 12.26 38.06 12.3 38.35 12.3L38.35 12.3Q39.11 12.3 39.95 11.85 40.78 11.4 41.48 10.43 42.19 9.46 42.66 8 43.13 6.53 43.18 4.51L43.18 4.51Q43.18 2.31 43.2 0.21 43.21-1.9 43.27-4.45L43.27-4.45Q42.28-2.55 41.13-1.51 39.99-0.47 38.96 0.03L38.96 0.03Q37.79 0.62 36.59 0.73L36.59 0.73Q34.42 0.73 32.81-0.35 31.2-1.44 30.15-3.43 29.09-5.42 28.58-8.22 28.07-11.02 28.07-14.47L28.07-14.47Q28.07-24.05 29.38-32.75L29.38-32.75 36.83-31.93Q36.59-30.97 36.37-29.82 36.15-28.68 35.98-27.45 35.8-26.22 35.67-24.98 35.54-23.73 35.42-22.59L35.42-22.59Q35.16-19.89 34.98-17.11L34.98-17.11Q34.98-14.33 35.16-12.26 35.33-10.2 35.79-8.83 36.24-7.47 37.03-6.8 37.82-6.12 39.05-6.12L39.05-6.12Q39.93-6.27 40.75-7.35L40.75-7.35Q41.1-7.82 41.48-8.53 41.87-9.23 42.25-10.25 42.63-11.28 42.98-12.67 43.33-14.06 43.62-15.91L43.62-15.91Q43.71-18.19 43.75-20.08 43.8-21.97 43.8-23.7L43.8-23.7Q43.8-25.78 43.71-27.7 43.62-29.62 43.45-31.73L43.45-31.73ZM54.67-45.23L62.29-45.06Q62.11-41.48 61.96-38.44 61.82-35.39 61.71-32.7 61.61-30 61.55-27.57 61.49-25.14 61.45-22.76 61.41-20.39 61.39-17.99 61.38-15.59 61.38-12.95L61.38-12.95Q61.38-10.02 61.38-6.68 61.38-3.34 61.44 0.73L61.44 0.73 54.79 0.59Q54.96-3.84 55.02-8.13 55.08-12.42 55.08-16.93L55.08-16.93Q55.08-19.95 55.05-23.13 55.02-26.31 54.96-29.78 54.9-33.25 54.83-37.09 54.76-40.93 54.67-45.23L54.67-45.23Z" transform="translate(-1.3799999952316284, 45.22999954223633)">
          </path>
        </g>
      </g>
      <g transform="translate(63.90999984741211, 0)">
        <g>
          <g class="imagesvg">
            <g>
              <rect fill="#ce93bf" fill-opacity="0" stroke-width="2" x="0" y="0" width="73.86328125" height="73.86328125" class="image-rect">
              </rect>
              <svg x="0" y="0" width="73.86328125" height="73.86328125" filtersec="colorsb3555258330" class="image-svg-svg primary" style="overflow: visible;">
                <svg xmlns="http://www.w3.org/2000/svg" viewBox="0 -2.522425627746183e-13 81.5 81.49999237060547">
                  <g>
                    <g>
                      <path d="M10.5 35.5a35.5 35.5 0 0 1 71 0z" fill="#ce93bf">
                      </path>
                      <path d="M71 46a35.5 35.5 0 0 1-71 0z" fill="#fcc800">
                      </path>
                      <path fill="#915da3" d="M10.5 35.5H71V46H10.5z">
                      </path>
                    </g>
                  </g>
                </svg>
              </svg> <!---->
            </g>
          </g>
        </g>
      </g>
      <g data-gra="path-name-1" fill="#ce93bf" transform="translate(140.7732810974121, 6.157461166381836)">
        <g transform="scale(1)">
          <path d="M15.97-32.64L25.02-32.52Q23.61-28.15 22.38-24.05 21.15-19.95 20.07-15.86 18.98-11.78 18.02-7.62 17.05-3.46 16.2 1.03L16.2 1.03 7.73 1.2Q6.94-3.16 6.14-7.25 5.33-11.34 4.44-15.38 3.54-19.42 2.55-23.53 1.55-27.63 0.41-31.99L0.41-31.99 8.82-32.34Q9.49-26.07 10.31-19.54 11.13-13.01 12.25-6.71L12.25-6.71Q13.68-13.07 14.58-19.67 15.47-26.28 15.97-32.64L15.97-32.64ZM47.08 0.79L40.31 1.2Q40.14 0.29 39.99-0.64 39.84-1.58 39.76-2.58L39.76-2.58Q38.41-0.59 36.53 0.48 34.66 1.55 32.43 1.55L32.43 1.55Q31.29 1.55 30.09 1.19 28.89 0.82 27.91-0.09 26.92-1 26.29-2.56 25.66-4.13 25.66-6.53L25.66-6.53Q25.66-8.53 26.25-10 26.84-11.48 27.77-12.6 28.71-13.71 29.88-14.53 31.05-15.35 32.21-16 33.37-16.64 34.42-17.2 35.48-17.75 36.15-18.31L36.15-18.31Q37.44-19.34 38.39-20.49 39.35-21.65 39.93-22.91L39.93-22.91Q39.81-24.93 39.51-26.24 39.2-27.54 38.7-28.32 38.2-29.09 37.49-29.4 36.77-29.71 35.86-29.71L35.86-29.71Q34.51-29.71 33.59-29.12 32.67-28.54 32.08-27.71L32.08-27.71Q32.81-27.25 33.21-26.72 33.6-26.19 33.81-25.69L33.81-25.69Q34.04-25.14 34.07-24.55L34.07-24.55Q34.07-22.56 32.94-21.5 31.82-20.45 30.06-20.45L30.06-20.45Q29.15-20.45 28.39-20.87 27.63-21.3 27.06-22.06 26.48-22.82 26.16-23.88 25.84-24.93 25.84-26.16L25.84-26.16Q25.84-27.39 26.4-28.77 26.95-30.15 28.18-31.33 29.41-32.52 31.35-33.3 33.28-34.07 36.04-34.07L36.04-34.07Q38.79-34.07 40.75-33 42.71-31.93 43.97-30.16 45.23-28.39 45.81-26.07 46.38-23.76 46.38-21.3L46.38-21.3Q46.38-19.45 46.35-17.29 46.32-15.12 46.32-12.83L46.32-12.83Q46.32-10.93 46.35-9.02 46.38-7.12 46.46-5.35 46.55-3.57 46.7-2.01 46.85-0.44 47.08 0.79L47.08 0.79ZM39.64-9.73L39.87-15.97Q38.85-14.74 37.68-13.86L37.68-13.86Q36.8-13.24 35.79-12.48 34.78-11.72 33.91-10.87 33.05-10.02 32.48-9.1 31.9-8.17 31.9-7.21L31.9-7.21Q31.9-5.89 32.55-4.95 33.19-4.01 34.37-4.01L34.37-4.01Q35.45-4.01 36.3-4.6 37.15-5.19 37.81-6.05 38.47-6.91 38.92-7.91 39.38-8.91 39.64-9.73L39.64-9.73ZM50.74-32.58L58.36-32.46 58.18-30.06Q59.15-31.67 60.25-32.52 61.35-33.37 62.29-33.72 63.22-34.07 63.85-34.1 64.48-34.13 64.54-34.13L64.54-34.13Q66.71-34.13 68.32-33.13 69.93-32.14 70.99-30.25 72.04-28.36 72.55-25.65 73.07-22.94 73.07-19.51L73.07-19.51Q73.07-16.99 72.99-14.37 72.92-11.75 72.7-9.16 72.48-6.56 72.11-4.1 71.75-1.64 71.13 0.59L71.13 0.59 64.31-0.23Q64.98-3.72 65.36-6.74 65.74-9.76 65.92-12.01L65.92-12.01Q66.12-14.65 66.15-16.85L66.15-16.85Q66.15-19.63 65.98-21.69 65.8-23.76 65.35-25.12 64.89-26.48 64.1-27.16 63.31-27.83 62.08-27.83L62.08-27.83Q61.26-27.66 60.44-26.66L60.44-26.66Q59.74-25.81 58.95-23.95 58.15-22.09 57.57-18.72L57.57-18.72Q57.48-16.44 57.47-14.19 57.45-11.95 57.45-9.43L57.45-9.43Q57.45-7.29 57.45-4.83 57.45-2.37 57.51 0.73L57.51 0.73 50.86 0.59Q50.95-2.4 50.99-5.76 51.04-9.11 51.04-13.21L51.04-13.21Q51.04-17.29 50.98-22.03 50.92-26.78 50.74-32.58L50.74-32.58Z" transform="translate(-0.4099999964237213, 45.22999954223633)">
          </path>
        </g>
      </g>
    </g> <!---->
  </g>
  <defs v-gra="od">
  </defs>
</svg>